<svg width="60" height="56" viewBox="0 0 60 56" fill="none" xmlns="http://www.w3.org/2000/svg">
<g id="Group 400">
<path id="Ellipse 123" opacity="0.5" d="M31.3134 14.5486C28.0413 18.1333 26.044 22.9065 26.044 28.1433C26.044 33.8379 28.4055 38.9832 32.1993 42.6494C32.6009 43.0374 33.0938 43.2882 33.6063 43.4057L56.3589 48.6225C57.5243 48.8897 58.2508 47.9905 58.4901 47.4772C58.7343 46.9535 58.9298 45.8954 58.1106 45.1484C54.6961 42.0349 50.5906 36.2341 50.5906 28.1433C50.5906 20.2731 54.4746 14.6579 57.8249 11.5625L56.969 10.6362L57.8249 11.5625C58.2466 11.1729 58.3884 10.6712 58.4041 10.2682C58.4196 9.87109 58.3211 9.49481 58.1737 9.18499C58.0274 8.87733 57.7934 8.55279 57.4549 8.31277C57.1018 8.06251 56.5859 7.87901 56.0013 8.02138L32.8119 13.6687C32.2543 13.8045 31.7245 14.0982 31.3134 14.5486Z" fill="#BEF9C0" stroke="white" stroke-width="2.52241"/>
<path id="Ellipse 124" opacity="0.5" d="M20.231 11.8762C16.2962 16.1471 13.8914 21.8541 13.8914 28.1199C13.8914 34.9265 16.729 41.0725 21.2822 45.4358C21.6822 45.8191 22.1725 46.07 22.6861 46.1877L50.7938 52.6324C51.9433 52.896 52.6723 52.0298 52.9168 51.4944C53.1642 50.9526 53.3228 49.8999 52.4873 49.1779C48.2664 45.5304 42.8745 38.3291 42.8745 28.1199C42.8745 18.1429 48.0234 11.1531 52.1926 7.52378C53.0556 6.77253 52.8384 5.67799 52.5979 5.16162C52.3627 4.65668 51.6261 3.7199 50.4363 4.00966L21.7263 11.0014C21.1676 11.1374 20.6408 11.4313 20.231 11.8762Z" fill="#3695F4" stroke="white" stroke-width="2.52241"/>
<path id="Ellipse 125" d="M8.53668 10.7319C4.31815 15.2968 1.7388 21.4039 1.7388 28.1105C1.7388 35.3935 4.78023 41.9682 9.65881 46.6301C10.0582 47.0118 10.5477 47.2628 11.0616 47.3806L41.4644 54.3515C42.605 54.613 43.3364 53.7637 43.5845 53.2202C43.8348 52.6721 43.9826 51.6203 43.1403 50.9061C38.5789 47.0382 32.6233 39.2357 32.6233 28.1105C32.6233 17.2244 38.3252 9.64599 42.8393 5.79602C43.708 5.0552 43.5065 3.96383 43.2648 3.4401C43.0277 2.92621 42.2908 2.0026 41.1069 2.29091L10.031 9.8588C9.47198 9.99494 8.94605 10.2889 8.53668 10.7319Z" fill="url(#paint0_linear_139_897)" stroke="white" stroke-width="2.52241"/>
</g>
<defs>
<linearGradient id="paint0_linear_139_897" x1="36.5188" y1="24.5294" x2="-5.88105" y2="37.5645" gradientUnits="userSpaceOnUse">
<stop stop-color="#366EF4"/>
<stop offset="1" stop-color="white" stop-opacity="0.5"/>
</linearGradient>
</defs>
</svg>
